<?xml version="1.0" standalone="no"?>
<!DOCTYPE svg PUBLIC "-//W3C//DTD SVG 20010904//EN"
 "http://www.w3.org/TR/2001/REC-SVG-20010904/DTD/svg10.dtd">
<svg version="1.0" xmlns="http://www.w3.org/2000/svg"
 width="650.000000pt" height="650.000000pt" viewBox="0 0 650.000000 650.000000"
 preserveAspectRatio="xMidYMid meet">
<metadata>
Created by potrace 1.11, written by Peter Selinger 2001-2013
</metadata>
<g transform="translate(0.000000,650.000000) scale(0.100000,-0.100000)"
fill="#000000" stroke="none">
<path d="M972 3920 c-263 -71 -420 -269 -453 -570 -12 -111 -1 -256 28 -353
44 -151 167 -304 293 -366 101 -49 160 -61 305 -61 148 0 216 14 309 62 85 45
202 164 243 249 54 108 54 107 -62 140 -55 16 -106 28 -114 27 -7 -2 -22 -26
-32 -54 -28 -74 -88 -137 -167 -176 -63 -31 -72 -33 -177 -33 -98 0 -116 3
-166 26 -151 71 -223 213 -223 439 0 223 72 370 217 436 57 27 71 29 177 29
106 0 120 -2 172 -28 70 -34 138 -108 169 -182 16 -39 27 -54 38 -51 9 2 55
14 102 26 117 30 115 28 93 85 -59 156 -201 290 -364 345 -96 32 -288 38 -388
10z"/>
<path d="M2335 3925 c-218 -48 -380 -207 -445 -437 -27 -92 -37 -276 -21 -376
32 -203 125 -356 275 -453 105 -68 153 -82 315 -87 169 -5 224 4 331 56 148
72 263 219 312 399 31 114 31 336 0 446 -69 241 -235 405 -457 452 -85 18
-229 18 -310 0z m284 -224 c92 -29 163 -87 200 -165 51 -106 64 -174 58 -311
-7 -186 -49 -291 -147 -369 -156 -125 -434 -88 -540 71 -115 175 -115 481 0
648 86 125 265 177 429 126z"/>
<path d="M2551 3474 c-77 -40 -111 -158 -65 -222 49 -65 126 -89 187 -58 27
15 27 15 27 -20 0 -67 -73 -107 -127 -69 -20 14 -24 13 -53 -16 -29 -29 -30
-32 -13 -45 53 -40 161 -44 211 -7 15 10 37 39 50 63 19 38 22 60 22 155 0 95
-3 115 -23 149 -12 22 -34 48 -49 59 -37 28 -122 33 -167 11z m123 -85 c51
-40 19 -129 -46 -129 -36 0 -78 40 -78 75 0 33 41 75 73 75 13 0 36 -9 51 -21z"/>
<path d="M2233 3454 c-40 -24 -43 -28 -43 -70 0 -24 3 -44 8 -44 4 0 24 11 45
25 l37 26 0 -186 0 -185 40 0 40 0 0 230 0 230 -42 0 c-28 0 -58 -9 -85 -26z"/>
<path d="M3130 3905 c0 -10 164 -533 338 -1078 l76 -237 165 2 164 3 18 55
c10 30 63 201 119 380 57 179 140 443 186 587 46 144 84 269 84 278 0 13 -18
15 -115 15 l-114 0 -57 -177 c-31 -98 -94 -295 -140 -438 -45 -143 -98 -307
-116 -365 l-32 -105 -49 150 c-26 83 -86 272 -132 420 -47 149 -102 324 -123
390 l-38 120 -117 3 c-64 1 -117 0 -117 -3z"/>
<path d="M4430 3250 l0 -660 115 0 115 0 0 660 0 660 -115 0 -115 0 0 -660z"/>
<path d="M4925 3898 c-3 -7 -4 -303 -3 -658 l3 -645 265 -3 c316 -3 376 4 486
58 141 69 244 204 294 382 16 58 20 102 20 218 -1 159 -6 195 -50 309 -58 150
-177 269 -321 321 -61 23 -80 24 -377 28 -253 3 -313 1 -317 -10z m604 -224
c138 -41 221 -199 221 -419 0 -212 -69 -361 -192 -416 -47 -21 -71 -24 -225
-27 l-173 -4 0 441 0 441 158 0 c115 0 173 -4 211 -16z"/>
</g>
</svg>
