<svg xmlns="http://www.w3.org/2000/svg" viewBox="0 0 547.41 136.61"><defs><style>.a{fill:#ff0000;}.b{fill:#006600;}.d{fill:#ffff00;}.e{fill:#003399;}</style></defs><title>Logo COVID19 </title><path class="a" d="M457.53,84.88c0-20.49.06-41-.07-61.48,0-3,.68-4.06,3.84-4,15.32.2,30.65.09,46,.25,33.59.35,48.5,22.76,53.68,44,4.36,17.91,3.77,35.74-3.4,52.92-9,21.49-25.29,33-48.59,33.79-16,.51-32,0-48,.26-3.64.06-3.49-1.72-3.48-4.27C457.56,125.87,457.53,105.38,457.53,84.88Zm22.22.14c0,13.66.08,27.33-.07,41,0,3,.56,4.13,3.81,4,7.82-.25,15.66.07,23.49-.15,12.06-.34,21.78-5.17,27-16.43,9-19.41,9.17-39-.67-58.2a25.86,25.86,0,0,0-19.41-14.19c-10.6-1.85-21.26-.55-31.88-1C479,40,479.77,42.38,479.77,44,479.73,57.69,479.75,71.36,479.75,85Z" transform="translate(-16.3 -16.7)"/><path class="b" d="M16.3,84.28c-.06-16.91,3.9-33.35,15.41-47.19,12-14.44,28-20,46.42-20.38,27.18-.53,48.64,13.11,58.31,37.17,1.46,3.62,1.2,5.23-3,6A78,78,0,0,0,120,63.51c-3.14,1.14-4.25.3-5.43-2.65-9.4-23.38-39.53-31.62-59.47-16.38-6.61,5.06-10.7,11.84-13,19.68a73.36,73.36,0,0,0-.44,40.47c4.59,16.93,16.85,27.09,33.46,28.13,19.54,1.22,32.54-6.51,39.51-23.79,1.08-2.69,2.14-3.61,5-2.69,4.88,1.59,9.81,3.1,14.81,4.21,3.15.7,3.53,1.69,2.34,4.64-9.08,22.47-25.53,35.41-49.64,37.72-21.22,2-40.61-2.47-55.11-19.51C20.25,119.48,16.25,102.86,16.3,84.28Z" transform="translate(-16.3 -16.7)"/><path class="a" d="M335.4,127.79c2.39-7.4,4.72-14.57,7-21.76,8.77-27.4,17.63-54.77,26.18-82.24,1.15-3.69,2.83-4.61,6.31-4.41a114.55,114.55,0,0,0,13.49,0c3.64-.22,4,.89,3,4.16C379.5,60.79,367.79,98.08,356,135.34c-1.6,5-1.57,12-5.46,14.51-3.63,2.39-10,.7-15.14.68-5.32,0-11.86,1.66-15.61-.81-4-2.65-4-9.78-5.61-15C302.49,98,291,61.13,279.2,24.4c-1.5-4.65-.39-5.32,3.84-5a98.63,98.63,0,0,0,13,0c3.26-.21,4.52,1,5.48,4.11q15.4,49.56,31.19,99C333.21,124.16,333.15,126.19,335.4,127.79Z" transform="translate(-16.3 -16.7)"/><path class="b" d="M214.44,153c-31.32,1.63-56.38-18.64-61.86-50.39-2.82-16.29-2.36-32.47,3.72-48.11,9.64-24.75,31.41-38.74,58.15-37.47q0,10,0,20c-1.16.11-2.32.26-3.48.33-17,1-28,9.11-33.39,25.26a70.68,70.68,0,0,0-.06,44.72c4,12.43,12.27,20.84,25.13,24.09,3.84,1,7.88,1.13,11.83,1.66Z" transform="translate(-16.3 -16.7)"/><path class="a" d="M214.44,153V133.07c12.61-.54,24.16-4.21,30.66-15.62C256.91,96.7,257,75.05,245.86,54c-6.43-12.14-18.29-16.27-31.45-17q0-10,0-20c31-1.31,56.07,20.11,60.94,52.34,2.61,17.28,1.6,34.24-5.86,50.36A56.77,56.77,0,0,1,214.44,153Z" transform="translate(-16.3 -16.7)"/><path class="a" d="M408.22,84.62c0-20.33.06-40.65-.07-61,0-3.14.59-4.5,4.06-4.28,4.81.3,9.66.17,14.49,0,2.49-.07,3.5.58,3.49,3.34q-.12,62.22,0,124.45c0,2.62-.73,3.5-3.36,3.4a133.23,133.23,0,0,0-14,0c-3.59.24-4.78-.59-4.73-4.53C408.34,125.6,408.22,105.11,408.22,84.62Z" transform="translate(-16.3 -16.7)"/><path class="d" d="M214.41,37c13.16.75,25,4.88,31.45,17,11.12,21,11.05,42.67-.76,63.42-6.5,11.41-18,15.08-30.66,15.62-3.95-.53-8-.69-11.83-1.66-12.86-3.25-21.14-11.66-25.13-24.09a70.68,70.68,0,0,1,.06-44.72c5.35-16.15,16.44-24.28,33.39-25.26C212.09,37.27,213.25,37.12,214.41,37ZM235,88.75c.36,11.62-3.89,14.66-14.27,11-3.23-1.15-4,2.21-5.58,3.7-1.41,1.34.85,2.08,1.76,2.71,9.7,6.64,23.67,1.25,25.48-10.11a71.86,71.86,0,0,0,0-21.91A15.3,15.3,0,0,0,225.7,61.5c-8.2.93-14.32,7.46-14.33,15.28a14.41,14.41,0,0,0,13.29,14.81C228.31,92,231.42,90.5,235,88.75Zm-42.39-18v5.47c0,9.48.11,19-.07,28.43-.05,2.84,1.11,3.51,3.52,3.22,1.9-.23,4.45,1,4.41-2.8-.15-13.3-.06-26.61-.06-39.92,0-1.34.18-2.55-1.79-2.88-5.29-.87-9.45,1.61-13.21,4.6-2.67,2.13-1,5.32-1,8.68Z" transform="translate(-16.3 -16.7)"/><path class="e" d="M235,88.75c-3.56,1.75-6.67,3.22-10.32,2.84a14.41,14.41,0,0,1-13.29-14.81c0-7.82,6.13-14.35,14.33-15.28a15.3,15.3,0,0,1,16.68,12.59,71.86,71.86,0,0,1,0,21.91c-1.81,11.36-15.78,16.75-25.48,10.11-.91-.63-3.17-1.37-1.76-2.71,1.55-1.49,2.35-4.85,5.58-3.7C231.09,103.41,235.34,100.37,235,88.75Zm.16-12.14A8,8,0,0,0,227,68.83a7.88,7.88,0,0,0-7.94,7.9,8.22,8.22,0,0,0,8.3,8.16A8.35,8.35,0,0,0,235.14,76.61Z" transform="translate(-16.3 -16.7)"/><path class="e" d="M192.59,70.77l-8.23,4.8c0-3.36-1.64-6.55,1-8.68,3.76-3,7.92-5.47,13.21-4.6,2,.33,1.79,1.54,1.79,2.88,0,13.31-.09,26.62.06,39.92,0,3.83-2.51,2.57-4.41,2.8-2.41.29-3.57-.38-3.52-3.22.18-9.47.07-19,.07-28.43Z" transform="translate(-16.3 -16.7)"/><path class="d" d="M235.14,76.61a8.35,8.35,0,0,1-7.75,8.28,8.22,8.22,0,0,1-8.3-8.16,7.88,7.88,0,0,1,7.94-7.9A8,8,0,0,1,235.14,76.61Z" transform="translate(-16.3 -16.7)"/></svg>